<svg xmlns="http://www.w3.org/2000/svg" viewBox="0 0 64 64" role="img" aria-label="Kafe Eman">
  <defs>
    <linearGradient id="ke-bg" x1="0" y1="0" x2="1" y2="1">
      <stop offset="0" stop-color="#6d8d7c" />
      <stop offset="1" stop-color="#43584f" />
    </linearGradient>
  </defs>

  <!-- Sage rounded-square tile, matching the app icon silhouette -->
  <rect width="64" height="64" rx="16" fill="url(#ke-bg)" />

  <!-- Coffee cup: body, handle and saucer -->
  <path
    d="M18 24h22v11a11 11 0 0 1-11 11h0a11 11 0 0 1-11-11V24z"
    fill="#ffffff"
  />
  <path
    d="M40 27h3.5a5.5 5.5 0 0 1 0 11H40"
    fill="none"
    stroke="#ffffff"
    stroke-width="3.4"
    stroke-linecap="round"
  />
  <rect x="14" y="49" width="30" height="3.6" rx="1.8" fill="#ffffff" opacity="0.92" />

  <!-- Steam -->
  <path
    d="M25 18c0-2.4 2.6-2.6 2.6-5S25 10.6 25 8"
    fill="none"
    stroke="#ffffff"
    stroke-width="2.6"
    stroke-linecap="round"
    opacity="0.75"
  />
  <path
    d="M33 18c0-2.4 2.6-2.6 2.6-5S33 10.6 33 8"
    fill="none"
    stroke="#ffffff"
    stroke-width="2.6"
    stroke-linecap="round"
    opacity="0.55"
  />
</svg>
